<?xml version="1.0" encoding="UTF-8"?>
<svg id="_图层_1" data-name="图层 1" xmlns="http://www.w3.org/2000/svg" viewBox="0 0 800 489.5">
  <defs>
    <style>
      .cls-1 {
        fill: #fff;
      }

      .cls-2, .cls-3 {
        fill: #0b30c8;
      }

      .cls-3 {
        font-family: Impact, Impact;
        font-size: 44px;
        letter-spacing: .2em;
      }

      .cls-4 {
        fill: #ff7d1f;
      }

      .cls-4, .cls-5, .cls-6 {
        stroke: #0b30c8;
        stroke-miterlimit: 10;
        stroke-width: 10px;
      }

      .cls-5 {
        fill: #683cfd;
      }

      .cls-6 {
        fill: #5394f7;
      }
    </style>
  </defs>
  <g>
    <g>
      <rect class="cls-5" x="421.95" y="164" width="148.5" height="86.5" rx="14" ry="14"/>
      <path class="cls-4" d="M506.97,198.15l-76.84-46.15c-7.55-4.53-17.16,.9-17.16,9.71v92.29c0,8.81,9.61,14.24,17.16,9.71l76.84-46.15c7.33-4.4,7.33-15.02,0-19.42Z"/>
    </g>
    <g>
      <path class="cls-2" d="M366.95,318v-74.29c0-41.27,0-82.54,0-123.81v-33.28c0-4.26,.85-9.12,6.08-9.61,2.51-.23,5.15,0,7.67,0h107.72c31.27,0,62.61,.62,93.87,0,.55-.01,1.1,0,1.66,0,7.72,0,7.73-12,0-12h-197.95c-3.92,0-7.84-.05-11.76,0-9.67,.12-17.56,6.47-19,16.27-1.16,7.92-.29,16.45-.29,24.42v119.78c0,30.32-.66,60.72,0,91.03,.01,.5,0,1,0,1.5,0,7.72,12,7.73,12,0h0Z"/>
      <circle class="cls-2" cx="384.95" cy="92" r="8"/>
      <circle class="cls-2" cx="404.95" cy="92" r="8"/>
    </g>
    <g>
      <path class="cls-2" d="M144.95,232v-90.73c0-5.71-2-17.32,6-18.27,5.86-.69,12.22,0,18.11,0h193.9c50.35,0,100.7,0,151.04,0,26.54,0,53.24,.84,79.78,0,.39-.01,.79,0,1.18,0,7.72,0,7.73-12,0-12H226.03c-24.87,0-49.93-.92-74.79,0-11.34,.42-18.18,9.5-18.3,20.33-.09,8.39,0,16.78,0,25.17,0,23.57,0,47.15,0,70.72v4.77c0,7.72,12,7.73,12,0h0Z"/>
      <circle class="cls-2" cx="163.95" cy="137" r="8"/>
      <rect class="cls-2" x="181.95" y="129" width="42" height="16" rx="8" ry="8"/>
    </g>
    <g>
      <path class="cls-2" d="M600.28,240h96.77c2.83,0,5.8-.32,8.29,1.32,3.45,2.27,3.61,5.73,3.61,9.32v106.18c0,6.11-.31,12.72-8.32,13.18-6.82,.39-13.77,0-20.6,0H306.9c-48.66,0-97.32,0-145.98,0h-44.58c-5.42,0-10.99,.38-16.4,0-10.16-.72-8-12.66-8-19.73,0-12.6,0-25.19,0-37.79,0-14.19,0-28.38,0-42.58,0-7.2-.45-14.57,0-21.76,.48-7.58,6.63-8.14,12.43-8.14h95.48c49.18,0,98.36,0,147.54,0h8.88c7.72,0,7.73-12,0-12h-118.69c-45.28,0-90.56-.27-135.84,0-11.92,.07-21.34,7.84-21.81,20.18-.29,7.62,0,15.32,0,22.94,0,27.19,0,54.38,0,81.58,0,10.44-.2,21.18,10.67,26.97,3.99,2.12,8.13,2.33,12.44,2.33h163.32c59.3,0,118.61,0,177.91,0,54.63,0,109.25,0,163.88,0,29.72,0,59.45,0,89.17,0,3.53,0,6.92,.06,10.35-1.2,8.18-3,12.96-10.53,13.27-19.04,.09-2.46,0-4.94,0-7.39v-81.16c0-8.23,.27-16.51,0-24.73-.24-7.58-3.79-14.49-10.67-18.15-3.95-2.1-8.13-2.33-12.45-2.33h-97.56c-7.72,0-7.73,12,0,12h0Z"/>
      <path class="cls-6" d="M85.95,320H714.95v41c0,7.73-6.27,14-14,14H99.95c-7.73,0-14-6.27-14-14v-41h0Z"/>
      <g>
        <rect class="cls-1" x="140.95" y="332" width="31" height="31" rx="4" ry="4"/>
        <rect class="cls-1" x="265.95" y="332" width="31" height="31" rx="4" ry="4"/>
        <rect class="cls-1" x="390.95" y="332" width="31" height="31" rx="4" ry="4"/>
        <rect class="cls-1" x="515.95" y="332" width="31" height="31" rx="4" ry="4"/>
        <rect class="cls-1" x="640.95" y="332" width="31" height="31" rx="4" ry="4"/>
      </g>
    </g>
  </g>
  <text class="cls-3" transform="translate(148.05 438)"><tspan x="0" y="0" xml:space="preserve">WEB  VIDEO  EDITING </tspan></text>
</svg>